<svg xmlns="http://www.w3.org/2000/svg" viewBox="0 0 47.66 47.66"><defs><style>.cls-1{fill:#fff;}</style></defs><g id="Lag_2" data-name="Lag 2"><g id="Lag_1-2" data-name="Lag 1"><g id="Group_36" data-name="Group 36"><path id="Path_6" data-name="Path 6" class="cls-1" d="M6,22.21v3.25a3,3,0,0,1-3,3H3a3,3,0,0,1-3-3H0V22.21a3,3,0,0,1,3-3H3a3,3,0,0,1,3,3Z"/><path id="Path_7" data-name="Path 7" class="cls-1" d="M41.71,22.29v-.08a3,3,0,0,1,3-3h0a3,3,0,0,1,3,3h0v.08h0v3.25h0a3,3,0,0,1-5.95,0h0V22.29Z"/><path id="Path_8" data-name="Path 8" class="cls-1" d="M16.25,32V35.2a3,3,0,0,1-3,3h0a3,3,0,0,1-3-3h0V32a3,3,0,0,1,3-3h0a3,3,0,0,1,3,3Zm0-19.5V23.08h0a3,3,0,0,1-6,0h0V12.45a3,3,0,0,1,3-3h0a3,3,0,0,1,3,3h0Z"/><path id="Path_9" data-name="Path 9" class="cls-1" d="M31.41,15.71a3,3,0,0,0,3,3h0a3,3,0,0,0,3-3h0V12.46a3,3,0,0,0-3-3h0a3,3,0,0,0-3,3h0Z"/><path id="Path_10" data-name="Path 10" class="cls-1" d="M20.85,6.23a3,3,0,0,0,3,3h0a3,3,0,0,0,3-3h0V3a3,3,0,0,0-3-3h0a3,3,0,0,0-3,3h0Zm0,35.2a3,3,0,0,1,3-3h0a3,3,0,0,1,3,3h0v3.25a3,3,0,0,1-3,3h0a3,3,0,0,1-3-3h0Z"/><path id="Path_11" data-name="Path 11" class="cls-1" d="M31.41,24.64a3,3,0,0,1,3-3h0a3,3,0,0,1,3,3h0V35.21a3,3,0,0,1-3,3h0a3,3,0,0,1-3-3h0Z"/><path id="Path_12" data-name="Path 12" class="cls-1" d="M26.81,15.17V32.5a3,3,0,0,1-3,3h0a3,3,0,0,1-3-3h0V15.17a3,3,0,0,1,3-3h0a3,3,0,0,1,3,3Z"/></g></g></g></svg>
