<svg xmlns="http://www.w3.org/2000/svg" viewBox="0 0 35.76 34.89"><defs><style>.cls-1{fill:#fff;}</style></defs><g id="Lag_2" data-name="Lag 2"><g id="Lag_1-2" data-name="Lag 1"><path id="instagram" class="cls-1" d="M17.88,0C13,0,12.42,0,10.51.11A13.4,13.4,0,0,0,6.17.92,8.74,8.74,0,0,0,3,2.93,8.39,8.39,0,0,0,.94,6a12.48,12.48,0,0,0-.83,4.23C0,12.11,0,12.7,0,17.44s0,5.33.11,7.19a12.48,12.48,0,0,0,.83,4.23A8.52,8.52,0,0,0,3,32a8.9,8.9,0,0,0,3.17,2,13.67,13.67,0,0,0,4.34.81c1.91.09,2.51.11,7.37.11s5.47,0,7.37-.11A13.73,13.73,0,0,0,29.6,34a9,9,0,0,0,3.16-2,8.39,8.39,0,0,0,2.06-3.09,12.74,12.74,0,0,0,.84-4.23c.09-1.87.1-2.45.1-7.19s0-5.33-.1-7.19A12.74,12.74,0,0,0,34.82,6a8.39,8.39,0,0,0-2.06-3.09,8.7,8.7,0,0,0-3.16-2A13.45,13.45,0,0,0,25.26.11C23.35,0,22.74,0,17.88,0Zm0,3.14c4.78,0,5.35,0,7.23.1a10.37,10.37,0,0,1,3.32.6,5.58,5.58,0,0,1,2.06,1.31,5.32,5.32,0,0,1,1.33,2,9.18,9.18,0,0,1,.62,3.23c.09,1.84.11,2.4.11,7.05s0,5.21-.11,7a9.47,9.47,0,0,1-.63,3.24A5.84,5.84,0,0,1,28.42,31a10.25,10.25,0,0,1-3.33.6c-1.9.08-2.46.1-7.25.1s-5.34,0-7.24-.11A10.54,10.54,0,0,1,7.27,31a5.53,5.53,0,0,1-2.06-1.31,5.35,5.35,0,0,1-1.34-2,9.76,9.76,0,0,1-.62-3.25c-.07-1.83-.09-2.4-.09-7s0-5.21.08-7.07a9.71,9.71,0,0,1,.63-3.24,5.08,5.08,0,0,1,1.34-2A5.26,5.26,0,0,1,7.27,3.79a10.31,10.31,0,0,1,3.3-.61c1.9-.07,2.46-.09,7.25-.09l.06,0Zm0,5.34a9.07,9.07,0,0,0-9.18,9,9.05,9.05,0,0,0,9.18,9,9.05,9.05,0,0,0,9.18-8.95A9.07,9.07,0,0,0,17.88,8.48Zm0,14.77a5.81,5.81,0,1,1,6-5.81A5.89,5.89,0,0,1,17.88,23.25ZM29.58,8.13A2.15,2.15,0,1,1,27.37,6h.06a2.12,2.12,0,0,1,2.15,2.09Z"/></g></g></svg>
