<svg xmlns="http://www.w3.org/2000/svg" viewBox="0 0 43.78 38.06"><defs><style>.cls-1{fill:#fff;}</style></defs><g id="Lag_2" data-name="Lag 2"><g id="Lag_1-2" data-name="Lag 1"><path id="Path_1" data-name="Path 1" class="cls-1" d="M34.38,38V.5c0-.5,0-.5.49-.5h4.37a4.62,4.62,0,0,1,4.52,4.37c0,.17,0,.34,0,.5q0,14.15,0,28.27a4.66,4.66,0,0,1-2.26,4.18,4.14,4.14,0,0,1-2.21.68c-1.57,0-3.13,0-4.69,0Zm3-19V34.35c0,.11,0,.22,0,.32s.07.33.31.32h1.37a1.64,1.64,0,0,0,1.68-1.61V4.84A1.71,1.71,0,0,0,39.22,3H37.89c-.49,0-.49,0-.49.49V19Z"/><path id="Path_2" data-name="Path 2" class="cls-1" d="M28.37,4.05h3V33.27A4.71,4.71,0,1,1,22,33.4v-.13c0-2.72,0-5.44,0-8.16V9.05c0-.51,0-.51.51-.51.71,0,1.42,0,2.13,0,.32,0,.4.09.4.41,0,3.7,0,7.41,0,11.12V33.23a1.68,1.68,0,1,0,3.35.17v0c0-.12,0-.24,0-.36V4.05Z"/><path id="Path_3" data-name="Path 3" class="cls-1" d="M9.59,25.53c0-2.54,0-5.08,0-7.63a4.75,4.75,0,0,1,3.85-4.74,4.67,4.67,0,0,1,5.33,3.21A4.78,4.78,0,0,1,19,17.82q0,7.72,0,15.45a4.71,4.71,0,0,1-9,2,5.92,5.92,0,0,1-.43-2.6c0-2.38,0-4.75,0-7.13Zm3,0c0,2.58,0,5.15,0,7.73a1.68,1.68,0,1,0,3.36,0q0-7.75,0-15.52a1.64,1.64,0,0,0-.46-1.14,1.68,1.68,0,0,0-2.9,1.19c0,2.57,0,5.15,0,7.72Z"/><path id="Path_4" data-name="Path 4" class="cls-1" d="M7.42,38.06c-1.41-.12-2.8.18-4.16-.21A4.6,4.6,0,0,1,0,33.57C0,29.71,0,25.85,0,22c0-.1,0-.19,0-.31H3v11.4a1.73,1.73,0,0,0,2,2H7.42Z"/></g></g></svg>
