<svg xmlns="http://www.w3.org/2000/svg" viewBox="0 0 44.77 44.66"><defs><style>.cls-1{fill:#fff;}</style></defs><g id="Lag_2" data-name="Lag 2"><g id="Lag_1-2" data-name="Lag 1"><g id="Group_37" data-name="Group 37"><path id="Path_13" data-name="Path 13" class="cls-1" d="M22.36,0H34.77A15.26,15.26,0,0,1,36.9.25a9.84,9.84,0,0,1,3,1.13,8,8,0,0,1,2,1.53A9.71,9.71,0,0,1,44,6.22a11.77,11.77,0,0,1,.65,3.05c.23,2.77.08,5.54.1,8.31,0,5.62,0,11.24,0,16.86a19.18,19.18,0,0,1-.28,2.28,6.05,6.05,0,0,1-.34,1.38A10.07,10.07,0,0,1,42.48,41a17.21,17.21,0,0,1-1.26,1.3,6.47,6.47,0,0,1-1.26.88,10.92,10.92,0,0,1-4.48,1.36,29.2,29.2,0,0,1-3.24.06c-.94,0-1.88,0-2.82,0-1.11,0-2.22-.07-3.33,0-.4,0-.8,0-1.2,0-1.1.07-2.2,0-3.3,0-.42,0-.84-.07-1.26,0-1.08.08-2.16,0-3.24,0-.4,0-.8-.06-1.2,0-1.09.08-2.18,0-3.27,0-.53,0-1.07-.07-1.59,0a10.31,10.31,0,0,1-2.48-.15,10,10,0,0,1-4-1.41,9.25,9.25,0,0,1-2.86-2.78A8,8,0,0,1,.3,36.43a3.48,3.48,0,0,0-.11-.72A13.68,13.68,0,0,1,0,32.39c0-3.67,0-7.34,0-11s0-7.54,0-11.31A10.56,10.56,0,0,1,.68,6.5,9.28,9.28,0,0,1,3,2.8,9.37,9.37,0,0,1,4.88,1.35,11.4,11.4,0,0,1,9.51,0H22.36ZM8.68,20.59c0-.44,0-.88,0-1.32A13.78,13.78,0,0,1,26.09,7.35a13.74,13.74,0,0,1,10,14,13.89,13.89,0,0,1-.62,3.38,13.46,13.46,0,0,1-2.64,4.73A13.28,13.28,0,0,1,28.18,33a.94.94,0,0,0-.66.87A11.16,11.16,0,0,1,27.36,35c0,.28.06.36.33.27a6.19,6.19,0,0,0,.6-.23,16,16,0,0,0,6-4.33,15.48,15.48,0,0,0,3.43-7A14.84,14.84,0,0,0,38,19.57a15.89,15.89,0,0,0-.66-3.68,16.57,16.57,0,0,0-1.75-3.74A15.07,15.07,0,0,0,32.69,8.8a15.46,15.46,0,0,0-6.42-3.4,16,16,0,0,0-3.65-.5A15.71,15.71,0,0,0,7,17.84a14.88,14.88,0,0,0-.06,5.07,15.64,15.64,0,0,0,6.19,10.22A15.33,15.33,0,0,0,17,35.25c.31.11.4,0,.36-.28s-.1-.74-.14-1.11a.9.9,0,0,0-.59-.84,5.92,5.92,0,0,1-.87-.44,12.92,12.92,0,0,1-4.27-3.64,13.16,13.16,0,0,1-2.81-8.35ZM26.2,28.05v-.67a2.49,2.49,0,0,0-1.66-2.48,5.35,5.35,0,0,0-4.33,0,2.4,2.4,0,0,0-1.6,1.86,9.37,9.37,0,0,0-.06,2c.11,1.37.23,2.73.41,4.09.2,1.54.42,3.09.76,4.61a2.12,2.12,0,0,0,1.42,1.66,3.45,3.45,0,0,0,2.43,0,2,2,0,0,0,1.37-1.37,18.09,18.09,0,0,0,.42-1.91c.21-1.3.4-2.6.54-3.91s.25-2.58.3-3.87Zm6.6-7.56c0-.3,0-.6,0-.9s-.08-.63-.14-.94a10.3,10.3,0,0,0-3.89-6.38,10.06,10.06,0,0,0-4-1.9,10.38,10.38,0,0,0-5.28.1A10.11,10.11,0,0,0,16.34,12a10.62,10.62,0,0,0-3.43,4.06,10,10,0,0,0-1,3.6,10.4,10.4,0,0,0,4.35,9.42c.1.07.21.15.34.07s.06-.2.06-.3a6.87,6.87,0,0,1,0-1.2,1.25,1.25,0,0,0-.46-1.16,8,8,0,0,1-1.74-2.61A8.32,8.32,0,0,1,14,18.67a8.56,8.56,0,0,1,11.3-6.14,8.66,8.66,0,0,1,4,3.12,8.32,8.32,0,0,1,1.5,4,8.41,8.41,0,0,1-.64,4.26,9.16,9.16,0,0,1-1.93,2.8.56.56,0,0,0-.24.4c0,.62,0,1.25,0,1.87,0,.19.12.22.27.14l.16-.1A9.74,9.74,0,0,0,31,26.45a10,10,0,0,0,1.8-6ZM22.38,22.87A3.57,3.57,0,0,0,26,19.31h0a3.61,3.61,0,1,0-3.61,3.57h0Z"/></g></g></g></svg>
