<svg xmlns="http://www.w3.org/2000/svg" viewBox="0 0 47.64 47.71"><defs><style>.cls-1{fill:#fff;}</style></defs><g id="Lag_2" data-name="Lag 2"><g id="Lag_1-2" data-name="Lag 1"><g id="Group_38" data-name="Group 38"><path id="Path_15" data-name="Path 15" class="cls-1" d="M9.86,28.93c0-2.14-.14-4.3,0-6.43A14,14,0,1,1,25.53,37.71a16.94,16.94,0,0,1-3.7,0,2.16,2.16,0,0,1-2.13-2.2,1.55,1.55,0,0,1,0-.37c.12-1.49,1.07-2.12,2.52-2.17a17.85,17.85,0,0,0,4.19-.35,9.08,9.08,0,0,0,6.41-10.23,9.26,9.26,0,0,0-9.69-7.69,9.16,9.16,0,0,0-8.52,8.94c-.06,3.79,0,7.57-.06,11.36,0,2.07-1.76,3.42-3.31,2.49A3.55,3.55,0,0,1,9.88,35a59.11,59.11,0,0,1-.07-6.1Z"/><path id="Path_16" data-name="Path 16" class="cls-1" d="M0,22.41A23.58,23.58,0,0,1,24.67,0c2.23.07,3.2.81,3.19,2.4s-1,2.32-3.23,2.33C14.61,4.81,6.83,11,5,20.51a30.57,30.57,0,0,0-.26,4.38c-.08,2-.77,2.94-2.26,3S.15,27,0,25.08C0,24.35,0,23.62,0,22.41Z"/><path id="Path_17" data-name="Path 17" class="cls-1" d="M47.64,24.51a23.87,23.87,0,0,1-23.59,23.2,17,17,0,0,1-2-.14,2.2,2.2,0,0,1-2.28-2.12,2.81,2.81,0,0,1,0-.29c0-1.38,1-2.22,2.6-2.3a40.52,40.52,0,0,0,5-.35A18.81,18.81,0,0,0,42.87,24.14a20.17,20.17,0,0,1,0-2.2,2.19,2.19,0,0,1,2.21-2.17h.14a2.12,2.12,0,0,1,2.28,1.95v.08C47.62,22.7,47.6,23.61,47.64,24.51Z"/><path id="Path_18" data-name="Path 18" class="cls-1" d="M27.94,23.76a4.15,4.15,0,1,1-4.26-4.07,4.07,4.07,0,0,1,4.25,3.89C27.93,23.64,27.94,23.7,27.94,23.76Z"/></g></g></g></svg>
