<svg xmlns="http://www.w3.org/2000/svg" viewBox="0 0 53.18 53.09"><defs><style>.cls-1{fill:#fff;}</style></defs><g id="Lag_2" data-name="Lag 2"><g id="Lag_1-2" data-name="Lag 1"><path id="Path_30" data-name="Path 30" class="cls-1" d="M30.28,52.83l-1.1.14c-.68,0-1.36.09-2,.11a20.88,20.88,0,0,1-3-.12,1.13,1.13,0,0,0-.26,0l-1.4-.17a5.87,5.87,0,0,0-1.11-.2l-1.11-.24a6.6,6.6,0,0,0-1.1-.3L18.84,52a3.21,3.21,0,0,0-.76-.24l-1.1-.4-2.14-.94-2.29-1.28a2.06,2.06,0,0,0-.52-.35,0,0,0,0,0-.06,0h0a1.77,1.77,0,0,0-.53-.36L9.29,46.68l-.2-.17a7.55,7.55,0,0,0-.88-.81l-.3-.3-.84-.86-.21-.24-1-1.12-.08-.08L4.32,41a8.07,8.07,0,0,0-.63-1h0a0,0,0,0,0,0-.06l0-.08-.55-1a.07.07,0,0,0,0-.08H3A3.81,3.81,0,0,0,2.64,38a1,1,0,0,0-.16-.37L2,36.54l-.77-2.21L.91,33.22l-.5-2.36-.14-1a11.89,11.89,0,0,0-.15-1.18,3.32,3.32,0,0,0-.11-1v-1.1a5.24,5.24,0,0,0,0-1.12v-.17a.93.93,0,0,0,.11-.49l.05-.51.1-1L.65,21l.24-1h0l0-.1.25-.94L2,16.66a7.46,7.46,0,0,0,.47-1.09.64.64,0,0,0,.2-.39l.4-.8.56-1,.17-.29a6.33,6.33,0,0,0,.56-.89L5.9,10l1-1.12.2-.23.85-.88.2-.2a9.25,9.25,0,0,0,1-.91,0,0,0,0,0,.06,0,.12.12,0,0,0,.09-.11h0a.51.51,0,0,0,.16-.09A28.48,28.48,0,0,1,12.62,4l2.23-1.25,2.21-1a4.12,4.12,0,0,0,1-.36l1.11-.32a0,0,0,0,0,.07,0v0L20.39.78a5.93,5.93,0,0,0,1-.24l1-.15a.15.15,0,0,0,.17,0h0A4.35,4.35,0,0,0,23.64.19c1,0,1.9-.19,2.87-.19s1.84.13,2.75.19h.22a2.57,2.57,0,0,0,.82.14l1.18.17a4.43,4.43,0,0,0,1,.2L33.7,1a1,1,0,0,0,.37.13l.66.2,1.11.38,1.1.44.23.09a4.67,4.67,0,0,0,.89.38,8.38,8.38,0,0,0,1.11.59.47.47,0,0,0,.3.14,2.9,2.9,0,0,0,.74.44l2.22,1.49.29.22a.06.06,0,0,0,.06,0h0a5.77,5.77,0,0,0,.81.67v0c0,.06,0,.07.09.09a1.1,1.1,0,0,0,.42.35,2.65,2.65,0,0,0,.55.51,3,3,0,0,0,.63.6l.48.51a3.65,3.65,0,0,0,.58.6l.59.69.35.42.76,1a.13.13,0,0,0,.08.12l1.49,2.29,1.07,2.07.93,2.29L52,19,52.56,21a5.07,5.07,0,0,0,.2,1,6.58,6.58,0,0,0,.17,1.18c0,.37.07.75.11,1.12,0,.14,0,.29,0,.44l.1,1.77a6.76,6.76,0,0,0,0,.9A11.37,11.37,0,0,0,53,29l-.12,1.11c0,.25-.07.5-.1.75l-.24,1.32L52,34.33l-.32,1-.94,2.3-1.14,2.22L48.19,42a.39.39,0,0,0-.16.2l-.67.86-.44.55-.51.61a5.21,5.21,0,0,0-.68.73,1.84,1.84,0,0,0-.44.44l-.64.61-.46.42-.71.59-.62.52a1.37,1.37,0,0,0-.43.33l-2.16,1.44a5.53,5.53,0,0,0-.91.53s-.1,0-.12.06-.09,0-.08.09v0a9.48,9.48,0,0,0-1.16.55l-.68.32-.43.2a4.42,4.42,0,0,0-1,.41l-2.22.7a6,6,0,0,0-1,.27l-1.18.24ZM22.15,14.08a50.12,50.12,0,0,0-6.47.45A32.3,32.3,0,0,0,10,15.76a2.46,2.46,0,0,0-1.66,3,.56.56,0,0,1,0,.12,2.52,2.52,0,0,0,3.18,1.54c.62-.19,1.25-.37,1.88-.5a43.87,43.87,0,0,1,10.78-.91,46.4,46.4,0,0,1,10.09,1.35,29.6,29.6,0,0,1,8,3.16,2.48,2.48,0,0,0,3.36-.84,2.44,2.44,0,0,0-.75-3.37l-.06,0c-.53-.32-1.08-.63-1.64-.92a34.91,34.91,0,0,0-5.84-2.3,49.32,49.32,0,0,0-7.71-1.6,55.44,55.44,0,0,0-7.51-.42Zm-.58,9.12a39,39,0,0,0-5.81.52,30,30,0,0,0-4.29,1,2,2,0,0,0-1.38,1.55,2.05,2.05,0,0,0,1.58,2.44,2.1,2.1,0,0,0,1.14-.08,31,31,0,0,1,7.58-1.25A37,37,0,0,1,31,28.46a29,29,0,0,1,8.14,3.31A2.08,2.08,0,0,0,42,31.06a2,2,0,0,0,.29-1,2.08,2.08,0,0,0-1.13-1.93,34.13,34.13,0,0,0-9.88-3.9,42.46,42.46,0,0,0-9.73-1Zm1,8.67c-1,0-1.8,0-2.65.08a47.61,47.61,0,0,0-7.42,1.1,1.65,1.65,0,0,0,.65,3.24h0L14.72,36a36.87,36.87,0,0,1,10.79-.66,25,25,0,0,1,10.94,3.53,1.6,1.6,0,0,0,1.81,0,1.66,1.66,0,0,0,.45-2.32,1.52,1.52,0,0,0-.66-.57,28,28,0,0,0-6.56-2.86,30.91,30.91,0,0,0-8.92-1.2Z"/></g></g></svg>
