<svg xmlns="http://www.w3.org/2000/svg" viewBox="0 0 49.29 34.51"><defs><style>.cls-1{fill:#fff;}</style></defs><g id="Lag_2" data-name="Lag 2"><g id="Lag_1-2" data-name="Lag 1"><path id="Path_25" data-name="Path 25" class="cls-1" d="M48.27,5.4a6.17,6.17,0,0,0-4.34-4.35C40.07,0,24.65,0,24.65,0S9.21,0,5.36,1A6.34,6.34,0,0,0,1,5.4C0,9.26,0,17.25,0,17.25s0,8,1,11.86a6.17,6.17,0,0,0,4.35,4.34c3.9,1.06,19.29,1.06,19.29,1.06s15.42,0,19.28-1a6.2,6.2,0,0,0,4.35-4.35c1-3.85,1-11.85,1-11.85S49.33,9.26,48.27,5.4ZM19.73,24.64V9.86l12.83,7.39Z"/></g></g></svg>
