<svg xmlns="http://www.w3.org/2000/svg" viewBox="0 0 501.2 386.57"><defs><style>.cls-1{fill:#ad0027;}.cls-2{fill:#40000e;}</style></defs><g id="Lag_2" data-name="Lag 2"><g id="Lag_1-2" data-name="Lag 1"><g id="Group_17" data-name="Group 17"><path id="Path_23" data-name="Path 23" class="cls-1" d="M469.77,324.25c0,6.6-3.86,12.95-11,18.91-30.18-25.17-119-43.41-223.89-43.41S41.18,318,11,343.16c-7.15-6-11-12.31-11-18.91,0-34.42,105.17-62.31,234.89-62.31S469.77,289.83,469.77,324.25Z"/><path id="Path_24" data-name="Path 24" class="cls-2" d="M458.76,343.17c-30.18,25.16-119,43.4-223.88,43.4S41.18,368.33,11,343.17C41.17,318,130,299.75,234.88,299.75S428.58,318,458.76,343.17Z"/></g><path id="Icon_ionic-ios-musical-notes" data-name="Icon ionic-ios-musical-notes" d="M359.65,156.33c-1.22.75-52.34,32.68-53.43,33.35a2.66,2.66,0,0,0-1.41,3.11L330.61,260a8.39,8.39,0,0,1,.59,3.54,8,8,0,0,1-3.14,5.28c-.81.66-2,1.43-3.32,2.33-6.16,4.1-16.46,11-12.46,21.42,3.34,8.71,11.12,10.22,16.77,8.82a14.74,14.74,0,0,0,2.07-.57h0c1.87-.72,9.73-4.79,12.91-9.19,2.31-3.2,4.45-8.58,1.61-16l-22.83-59.48a2.39,2.39,0,0,1,.95-2.88L363,188.38a2.4,2.4,0,0,1,3.32.73,2.74,2.74,0,0,1,.21.42l14.07,36.64a8.68,8.68,0,0,1,.74,4,8,8,0,0,1-3.17,5.29c-.81.67-2.24,1.54-3.59,2.44-6.17,4.1-16.47,11-12.48,21.39,3.62,9.44,12.19,10.49,16.9,9a24.77,24.77,0,0,0,5.33-2.33,34.39,34.39,0,0,0,8.82-7.57A15.81,15.81,0,0,0,395.68,242l-32.46-84.56a2.38,2.38,0,0,0-3.07-1.37A2.19,2.19,0,0,0,359.65,156.33Z"/><path id="Icon_ionic-ios-musical-notes-2" data-name="Icon ionic-ios-musical-notes-2" d="M353.21,51.15,308.7,48a1.9,1.9,0,0,0-2.1,1.2L293.4,98.49a5.93,5.93,0,0,1-1.14,2.27,5.69,5.69,0,0,1-4,1.72c-.73,0-1.71,0-2.87,0-5.24-.23-14-.55-16.06,7.08a9.72,9.72,0,0,0,5.94,12,10.56,10.56,0,0,0,1.42.53h0c1.38.37,7.57,1.31,11.23.11,2.66-.87,6.12-3.06,7.58-8.48l11.68-43.61a1.69,1.69,0,0,1,1.74-1.25l32.88,2.06a1.69,1.69,0,0,1,1.59,1.8,1.26,1.26,0,0,1-.05.33l-7.2,26.86a6,6,0,0,1-1.25,2.61,5.63,5.63,0,0,1-4,1.72c-.73,0-1.92,0-3.08-.1-5.24-.22-14-.57-16.05,7.07-1.86,6.91,2.62,11.08,5.92,12.21a17.79,17.79,0,0,0,4,.88,24.62,24.62,0,0,0,8.2-.66,11.21,11.21,0,0,0,8.3-8.38l16.61-62a1.68,1.68,0,0,0-1.19-2.06A1.34,1.34,0,0,0,353.21,51.15Z"/><g id="Group_18" data-name="Group 18"><path id="Path_1" data-name="Path 1" d="M484.48,98.82l-.75-1.06L423.15,11.31c-.81-1.15-.81-1.15.33-1.94,3.39-2.38,6.78-4.78,10.19-7.14A13.22,13.22,0,0,1,451.39,5c.29.39.57.77.85,1.17l46.24,66a13.21,13.21,0,0,1,1.57,13.43A11.86,11.86,0,0,1,496,90.8c-3.62,2.6-7.29,5.13-10.94,7.69C484.92,98.58,484.77,98.65,484.48,98.82ZM460.42,49.49l25.15,35.88c.17.25.37.49.53.76.32.57.68.65,1.22.24,1-.78,2.14-1.49,3.18-2.26a4.69,4.69,0,0,0,1.29-6.51c-.05-.08-.1-.14-.15-.21-.68-1-1.38-2-2.07-3L445.12,11a4.82,4.82,0,0,0-6.58-1.76,4.71,4.71,0,0,0-.65.45l-2.44,1.71c-1.15.81-1.15.81-.35,1.94l25.32,36.14Z"/><path id="Path_2" data-name="Path 2" d="M414.94,29.42l7-4.93.68,1,47.11,67.23a13.4,13.4,0,0,1-21.95,15.39c-4.48-6.33-8.91-12.69-13.35-19L408.19,51.56c-.83-1.19-.83-1.19.35-2,1.66-1.16,3.34-2.28,5-3.5.73-.54,1.09-.46,1.61.28q9,13,18.16,26L454.83,103a4.79,4.79,0,1,0,8-5.22c-.18-.29-.39-.56-.59-.84l-46.46-66.3Z"/><path id="Path_3" data-name="Path 3" d="M406.24,110.3c-4.16-5.94-8.29-11.89-12.49-17.8-3.83-5.42-3.34-12.91,1.21-17.36a13.31,13.31,0,0,1,17.71-1.24,14.08,14.08,0,0,1,2.9,3q12.68,18,25.28,36a13.4,13.4,0,0,1-17.69,19.35,16.62,16.62,0,0,1-5.27-5.38c-3.86-5.56-7.76-11.09-11.64-16.64Zm7.08-4.9q6.31,9,12.64,18a4.79,4.79,0,0,0,7.89-5.43q-12.68-18.12-25.39-36.22a4.6,4.6,0,0,0-2.94-1.91,4.73,4.73,0,0,0-4.87,1.92,4.79,4.79,0,0,0,0,5.58q6.3,9,12.63,18Z"/><path id="Path_4" data-name="Path 4" d="M421.65,143.07c-3.47,2-6.24,5-10,6.31A13.07,13.07,0,0,1,397,144.71c-6.36-9-12.66-18-19-27-.15-.22-.28-.46-.45-.74l6.94-4.86.76,1.08,17.88,25.52c2.13,3,4.74,3.49,7.75,1.38l5.78-4.05Z"/></g></g></g></svg>
